<?xml version="1.0" encoding="UTF-8" standalone="no"?>
<!-- Created with Inkscape (http://www.inkscape.org/) -->

<svg
   xmlns:dc="http://purl.org/dc/elements/1.1/"
   xmlns:cc="http://creativecommons.org/ns#"
   xmlns:rdf="http://www.w3.org/1999/02/22-rdf-syntax-ns#"
   xmlns:svg="http://www.w3.org/2000/svg"
   xmlns="http://www.w3.org/2000/svg"
   xmlns:sodipodi="http://sodipodi.sourceforge.net/DTD/sodipodi-0.dtd"
   xmlns:inkscape="http://www.inkscape.org/namespaces/inkscape"
   id="svg2985"
   version="1.1"
   inkscape:version="0.48.2 r9819"
   width="272.28125"
   height="261.3125"
   xml:space="preserve"
   sodipodi:docname="Yellow_Red_Green.svg"><title
     id="title4712">Yellow Red Green</title><metadata
     id="metadata2991"><rdf:RDF><cc:Work
         rdf:about=""><dc:format>image/svg+xml</dc:format><dc:type
           rdf:resource="http://purl.org/dc/dcmitype/StillImage" /><dc:title>Yellow Red Green</dc:title><cc:license
           rdf:resource="http://creativecommons.org/licenses/by-sa/3.0/ " /><dc:creator><cc:Agent><dc:title>Nevit Dilmen</dc:title></cc:Agent></dc:creator><dc:date>2014</dc:date></cc:Work><cc:License
         rdf:about="http://creativecommons.org/licenses/by-sa/3.0/"><cc:permits
           rdf:resource="http://creativecommons.org/ns#Reproduction" /><cc:permits
           rdf:resource="http://creativecommons.org/ns#Distribution" /><cc:requires
           rdf:resource="http://creativecommons.org/ns#Notice" /><cc:requires
           rdf:resource="http://creativecommons.org/ns#Attribution" /><cc:permits
           rdf:resource="http://creativecommons.org/ns#DerivativeWorks" /><cc:requires
           rdf:resource="http://creativecommons.org/ns#ShareAlike" /></cc:License></rdf:RDF></metadata><defs
     id="defs2989"><clipPath
       clipPathUnits="userSpaceOnUse"
       id="clipPath3679"><path
         d="M 0,0 585,0 585,774 0,774 0,0 z"
         id="path3681"
         inkscape:connector-curvature="0" /></clipPath><clipPath
       clipPathUnits="userSpaceOnUse"
       id="clipPath3695"><path
         d="M 0,0 585,0 585,774 0,774 0,0 z"
         id="path3697"
         inkscape:connector-curvature="0" /></clipPath><linearGradient
       x1="0"
       y1="0"
       x2="1"
       y2="0"
       gradientUnits="userSpaceOnUse"
       gradientTransform="matrix(186.95,0,0,-186.95,384.41664,171.25224)"
       spreadMethod="pad"
       id="linearGradient3833"><stop
         style="stop-opacity:1;stop-color:#fdb933"
         offset="0"
         id="stop3835" /><stop
         style="stop-opacity:1;stop-color:#ffffff"
         offset="0.928497"
         id="stop3837" /><stop
         style="stop-opacity:1;stop-color:#ffffff"
         offset="0.928497"
         id="stop3839" /><stop
         style="stop-opacity:1;stop-color:#ffffff"
         offset="1"
         id="stop3841" /></linearGradient></defs><sodipodi:namedview
     pagecolor="#ffffff"
     bordercolor="#666666"
     borderopacity="1"
     objecttolerance="10"
     gridtolerance="10"
     guidetolerance="10"
     inkscape:pageopacity="0"
     inkscape:pageshadow="2"
     inkscape:window-width="1440"
     inkscape:window-height="838"
     id="namedview2987"
     showgrid="false"
     fit-margin-top="0"
     fit-margin-left="0"
     fit-margin-right="0"
     fit-margin-bottom="0"
     inkscape:zoom="2.3686273"
     inkscape:cx="136.14458"
     inkscape:cy="130.65608"
     inkscape:window-x="-8"
     inkscape:window-y="-8"
     inkscape:window-maximized="1"
     inkscape:current-layer="g2993" /><g
     id="g2993"
     inkscape:groupmode="layer"
     inkscape:label="Scientific American Mind - Jan.Feb 2013"
     transform="matrix(1.25,0,0,-1.25,-214.75,710.53125)"><flowRoot
       xml:space="preserve"
       id="flowRoot4645"
       style="font-size:40px;font-style:normal;font-variant:normal;font-weight:bold;font-stretch:normal;line-height:125%;letter-spacing:0px;word-spacing:0px;fill:#000000;fill-opacity:1;stroke:none;font-family:Arial;-inkscape-font-specification:Arial Bold"
       transform="matrix(0.8,0,0,-0.8,0,774)"><flowRegion
         id="flowRegion4647"><rect
           id="rect4649"
           width="200.06462"
           height="135.98141"
           x="-265.71082"
           y="259.4588" /></flowRegion><flowPara
         id="flowPara4651" /></flowRoot><rect
       style="fill:#f9f9f9;fill-opacity:1;fill-rule:nonzero;stroke:#666666;stroke-width:4;stroke-miterlimit:4;stroke-dasharray:none"
       id="rect4683"
       width="213.81906"
       height="205.06624"
       x="173.80614"
       y="-566.43298"
       transform="scale(1,-1)"
       ry="31.260098" /><g
       transform="matrix(0.93451974,0,0,-1.0386576,433.31983,657.78407)"
       style="font-size:40px;font-style:normal;font-variant:normal;font-weight:bold;font-stretch:normal;line-height:125%;letter-spacing:0px;word-spacing:0px;fill:#006bcc;fill-opacity:1;stroke:none;font-family:Arial;-inkscape-font-specification:Arial Bold"
       id="flowRoot3869"><path
         d="m -238.41406,138.76669 0,-12.05078 -10.48828,-16.58203 6.77734,0 6.73828,11.32812 6.60156,-11.32812 6.66016,0 -10.52734,16.62109 0,12.01172 z"
         style=""
         id="path3036" /><path
         d="m -219.21484,138.76669 0,-28.63281 21.23047,0 0,4.84375 -15.44922,0 0,6.34765 14.375,0 0,4.82422 -14.375,0 0,7.79297 15.99609,0 0,4.82422 z"
         style=""
         id="path3038" /><path
         d="m -192.33984,138.76669 0,-28.39844 5.78125,0 0,23.57422 14.375,0 0,4.82422 z"
         style=""
         id="path3040" /><path
         d="m -167.88672,138.76669 0,-28.39844 5.78125,0 0,23.57422 14.375,0 0,4.82422 z"
         style=""
         id="path3042" /><path
         d="m -144.76172,124.62606 c 0,-2.91665 0.4362,-5.36456 1.3086,-7.34375 0.65103,-1.45831 1.5397,-2.7669 2.66601,-3.92578 1.1263,-1.15882 2.36002,-2.0182 3.70117,-2.57812 1.78385,-0.75518 3.84114,-1.13279 6.17188,-1.13281 4.21873,2e-5 7.59438,1.30862 10.12695,3.92578 2.53252,2.61721 3.7988,6.25653 3.79883,10.91797 -3e-5,4.6224 -1.25654,8.23893 -3.76953,10.8496 -2.51305,2.61068 -5.87242,3.91602 -10.07813,3.91602 -4.25782,0 -7.64323,-1.29883 -10.15625,-3.89648 -2.51302,-2.59765 -3.76953,-6.17512 -3.76953,-10.73243 z m 5.95703,-0.19531 c -1e-5,3.2422 0.74869,5.69988 2.2461,7.37305 1.49738,1.67318 3.39842,2.50977 5.70312,2.50976 2.30467,1e-5 4.19594,-0.83007 5.67383,-2.49023 1.47784,-1.66015 2.21677,-4.15038 2.2168,-7.4707 -3e-5,-3.28124 -0.71943,-5.72915 -2.15821,-7.34375 -1.43882,-1.61456 -3.34962,-2.42185 -5.73242,-2.42188 -2.38282,3e-5 -4.3034,0.81708 -5.76172,2.45117 -1.45834,1.63414 -2.18751,4.09833 -2.1875,7.39258 z"
         style=""
         id="path3044" /><path
         d="m -108.43359,138.76669 -6.83594,-28.63281 5.91797,0 4.3164,19.66797 5.234379,-19.66797 6.875,0 5.019531,20 4.394531,-20 5.820313,0 -6.953125,28.63281 -6.132813,0 -5.703125,-21.40625 -5.683591,21.40625 z"
         style=""
         id="path3046" /></g><g
       transform="matrix(2.0103067,0,0,-2.2343244,695.07836,745.77304)"
       style="font-size:40px;font-style:normal;font-variant:normal;font-weight:bold;font-stretch:normal;line-height:125%;letter-spacing:0px;word-spacing:0px;fill:#ffbe00;fill-opacity:1;stroke:none;font-family:Arial;-inkscape-font-specification:Arial Bold"
       id="flowRoot4653"><path
         d="m -245.91406,138.76669 0,-28.63281 12.16797,0 c 3.05987,3e-5 5.28318,0.25719 6.66992,0.77148 1.38669,0.51435 2.49672,1.42906 3.33008,2.74414 0.8333,1.31513 1.24997,2.81903 1.25,4.51172 -3e-5,2.14846 -0.63154,3.92254 -1.89453,5.32227 -1.26305,1.39975 -3.15107,2.28191 -5.66407,2.64648 1.24998,0.72918 2.28188,1.52996 3.09571,2.40234 0.81378,0.87241 1.91078,2.42189 3.29101,4.64844 l 3.4961,5.58594 -6.91407,0 -4.17968,-6.23047 c -1.4844,-2.22655 -2.50002,-3.62955 -3.04688,-4.20898 -0.54689,-0.57942 -1.12632,-0.97656 -1.73828,-1.19141 -0.61199,-0.21483 -1.58204,-0.32225 -2.91016,-0.32227 l -1.17187,0 0,11.95313 z m 5.78125,-16.52344 4.27734,0 c 2.77342,2e-5 4.50519,-0.11717 5.19531,-0.35156 0.69009,-0.23436 1.23045,-0.638 1.6211,-1.21094 0.3906,-0.5729 0.58591,-1.28904 0.58594,-2.14844 -3e-5,-0.96352 -0.25719,-1.74151 -0.77149,-2.33398 -0.51434,-0.59243 -1.24025,-0.96677 -2.17773,-1.12305 -0.46877,-0.0651 -1.87502,-0.0976 -4.21875,-0.0977 l -4.51172,0 z"
         style=""
         id="path3029" /><path
         d="m -217.02734,138.76669 0,-28.63281 21.23047,0 0,4.84375 -15.44922,0 0,6.34765 14.375,0 0,4.82422 -14.375,0 0,7.79297 15.99609,0 0,4.82422 z"
         style=""
         id="path3031" /><path
         d="m -190.32812,110.13388 10.5664,0 c 2.3828,3e-5 4.1992,0.18232 5.44922,0.54687 1.67967,0.49482 3.11847,1.37373 4.31641,2.63672 1.19789,1.26305 2.10935,2.80927 2.73437,4.63867 0.62497,1.82945 0.93747,4.08531 0.9375,6.76758 -3e-5,2.35678 -0.29299,4.38803 -0.8789,6.09375 -0.71618,2.08334 -1.73831,3.76954 -3.06641,5.05859 -1.00263,0.97657 -2.35679,1.73829 -4.0625,2.28516 -1.27606,0.40365 -2.98179,0.60547 -5.11719,0.60547 l -10.8789,0 z m 5.78125,4.84375 0,18.96484 4.3164,0 c 1.61457,1e-5 2.77993,-0.0911 3.4961,-0.27344 0.93748,-0.23437 1.71547,-0.6315 2.33398,-1.1914 0.61847,-0.55989 1.12303,-1.48112 1.51367,-2.76368 0.39061,-1.28254 0.58592,-3.03058 0.58594,-5.24414 -2e-5,-2.21352 -0.19533,-3.91274 -0.58594,-5.09765 -0.39064,-1.18488 -0.93752,-2.10936 -1.64062,-2.77344 -0.70315,-0.66404 -1.59507,-1.11326 -2.67578,-1.34766 -0.80731,-0.18226 -2.38934,-0.27341 -4.7461,-0.27343 z"
         style=""
         id="path3033" /></g><g
       transform="matrix(1.166121,0,0,-1.2960672,488.66557,564.38365)"
       style="font-size:40px;font-style:normal;font-variant:normal;font-weight:bold;font-stretch:normal;line-height:125%;letter-spacing:0px;word-spacing:0px;fill:#c91f25;fill-opacity:1;stroke:none;font-family:Arial;-inkscape-font-specification:Arial Bold"
       id="flowRoot4661"><path
         d="m -232.61328,128.23935 0,-4.82422 12.46094,0 0,11.40625 c -1.21097,1.17187 -2.96552,2.20377 -5.26368,3.0957 -2.29819,0.89193 -4.62567,1.33789 -6.98242,1.33789 -2.9948,0 -5.60548,-0.62825 -7.83203,-1.88477 -2.22657,-1.2565 -3.89974,-3.05338 -5.01953,-5.39062 -1.11979,-2.33723 -1.67969,-4.87955 -1.67969,-7.62695 0,-2.98176 0.625,-5.63149 1.875,-7.94922 1.25,-2.31769 3.07942,-4.09503 5.48828,-5.33203 1.83593,-0.9505 4.12108,-1.42576 6.85547,-1.42578 3.55467,2e-5 6.33136,0.74547 8.33008,2.23632 1.99867,1.49091 3.28448,3.55146 3.85742,6.18164 l -5.74218,1.07422 c -0.40367,-1.40623 -1.16214,-2.51625 -2.2754,-3.33008 -1.1133,-0.81377 -2.50327,-1.22067 -4.16992,-1.2207 -2.52605,3e-5 -4.53451,0.80081 -6.02539,2.40235 -1.49089,1.60158 -2.23633,3.97788 -2.23633,7.1289 0,3.39845 0.7552,5.94728 2.26563,7.64649 1.5104,1.69922 3.48957,2.54883 5.9375,2.54882 1.21092,1e-5 2.42511,-0.23762 3.64258,-0.71289 1.21742,-0.47525 2.26234,-1.05142 3.13476,-1.72851 l 0,-3.63281 z"
         style=""
         id="path3018" /><path
         d="m -214.82031,138.76669 0,-28.63281 12.16797,0 c 3.05987,3e-5 5.28318,0.25719 6.66992,0.77148 1.38669,0.51435 2.49672,1.42906 3.33008,2.74414 0.8333,1.31513 1.24997,2.81903 1.25,4.51172 -3e-5,2.14846 -0.63154,3.92254 -1.89453,5.32227 -1.26305,1.39975 -3.15107,2.28191 -5.66407,2.64648 1.24998,0.72918 2.28188,1.52996 3.09571,2.40234 0.81378,0.87241 1.91078,2.42189 3.29101,4.64844 l 3.4961,5.58594 -6.91407,0 -4.17968,-6.23047 c -1.4844,-2.22655 -2.50002,-3.62955 -3.04688,-4.20898 -0.54689,-0.57942 -1.12632,-0.97656 -1.73828,-1.19141 -0.61199,-0.21483 -1.58204,-0.32225 -2.91016,-0.32227 l -1.17187,0 0,11.95313 z m 5.78125,-16.52344 4.27734,0 c 2.77342,2e-5 4.50519,-0.11717 5.19531,-0.35156 0.69009,-0.23436 1.23045,-0.638 1.6211,-1.21094 0.3906,-0.5729 0.58591,-1.28904 0.58594,-2.14844 -3e-5,-0.96352 -0.25719,-1.74151 -0.77149,-2.33398 -0.51434,-0.59243 -1.24025,-0.96677 -2.17773,-1.12305 -0.46877,-0.0651 -1.87502,-0.0976 -4.21875,-0.0977 l -4.51172,0 z"
         style=""
         id="path3020" /><path
         d="m -185.93359,138.76669 0,-28.63281 21.23047,0 0,4.84375 -15.44922,0 0,6.34765 14.375,0 0,4.82422 -14.375,0 0,7.79297 15.99609,0 0,4.82422 z"
         style=""
         id="path3022" /><path
         d="m -159.21484,138.76669 0,-28.63281 21.23047,0 0,4.84375 -15.44922,0 0,6.34765 14.375,0 0,4.82422 -14.375,0 0,7.79297 15.99609,0 0,4.82422 z"
         style=""
         id="path3024" /><path
         d="m -132.4375,138.76669 0,-28.63281 5.625,0 11.71875,19.12109 0,-19.12109 5.37109,0 0,28.63281 -5.80078,0 -11.54297,-18.67188 0,18.67188 z"
         style=""
         id="path3026" /></g></g></svg>